# xmcd
#
# Track frame offsets: 
#        150
#        12727
#        23665
#        35980
#        45850
#        56647
#        68120
#        79365
#        92890
#        104377
#        115800
#        129650
#        141172
#        152035
#        165025
#
# Disc length: 2350 seconds
#
# Revision: 10
# Processed by: cddbd v1.5.2PL0 Copyright (c) Steve Scherf et al.
# Submitted via: ExactAudioCopyFreeDBPlugin 1.0
#
DISCID=c5092c0f
DTITLE=Various Artist - Classic Country Golden '50s
DYEAR=1900
DGENRE=Country
TTITLE0=George Jones - White Lightning
TTITLE1=Webb Pierce - There Stands The Glass
TTITLE2=Hank Williams - Your Cheatin' Heart
TTITLE3=Elvis Presley - Heartbreak Hotel
TTITLE4=The Everly Brothers - Bye Bye Love
TTITLE5=Don Gibson - Oh Lonesome Me
TTITLE6=Stonewall Jackson - Waterloo
TTITLE7=Ray Price - Heartaches By The Number
TTITLE8=Kitty Wells - It Wasn't God Who Made Honky Tonk Angels
TTITLE9=Marty Robbins - A White Sport Coat
TTITLE10=Pattie Page - Tennessee Waltz
TTITLE11=Eddy Arnold - Cattle Call
TTITLE12=Ferlin Husky - Gone
TTITLE13=Jim Reeves - Four Walls
TTITLE14=Hank Locklin - Send Me The Pillow You Dream On
EXTD=Time Life Music
EXTT0=
EXTT1=
EXTT2=
EXTT3=
EXTT4=
EXTT5=
EXTT6=
EXTT7=
EXTT8=
EXTT9=
EXTT10=
EXTT11=
EXTT12=
EXTT13=
EXTT14=
PLAYORDER=
